<svg width="2451" height="1698" viewBox="0 0 2451 1698" fill="none" xmlns="http://www.w3.org/2000/svg">
<g clip-path="url(#clip0_464_2297)">
<path d="M9.29684 -52.1793C9.63491 -50.8269 9.44709 -49.7938 8.80852 -48.6105C7.83187 -46.7134 6.68619 -47.4272 5.70955 -46.2063C4.75169 -45.0229 3.85017 -41.0221 4.2258 -39.4067C1.05171 -38.3173 4.03799 -35.143 3.94408 -32.8326C3.90651 -31.8935 3.17403 -30.8604 3.09891 -29.8085C2.91109 -27.5733 3.41819 -24.8122 4.37606 -22.8588C6.19787 -19.1397 9.40953 -15.1013 12.5461 -12.6407C16.1146 -9.86079 19.4013 -1.89671 23.9653 -0.788505C27.3084 0.000388329 31.1774 -2.74196 34.1637 -3.4745C37.5632 -4.28218 41.6388 -3.28667 44.9068 -4.45123C49.0763 -5.9351 47.292 -10.7812 50.3159 -12.9037C52.2692 -14.2936 55.7062 -13.0915 57.9412 -13.8616C61.6975 -15.1764 64.3082 -18.8016 65.0031 -22.5019C65.3036 -24.0421 65.1909 -25.2254 65.7356 -26.653C66.4493 -28.5876 67.8203 -29.6583 67.4259 -32.1564C67.2381 -33.321 66.4681 -34.4104 66.2239 -35.6689C65.8295 -37.8102 66.2615 -39.8763 66.2239 -41.9988C66.1676 -45.7555 66.5432 -49.1176 64.7589 -52.3296C57.6219 -65.2524 41.5449 -69.7792 27.6653 -67.1495C24.2846 -66.4921 22.2937 -64.764 19.3638 -63.2426C16.1709 -61.5897 16.7531 -60.1246 13.3912 -59.0352C11.8699 -58.5468 9.35318 -56.7248 9.35318 -54.8465C9.39074 -52.6865 9.44709 -53.8886 9.57856 -51.6722C9.18415 -51.4655 9.16537 -51.7661 8.99633 -52.1417" fill="#D2A73A"/>
<path d="M1374.06 116.118C1361.01 128.552 1343.15 160.709 1343.15 205.788C1343.15 216.608 1343.15 474.989 1343.15 484.23C1343.15 507.334 1334.6 529.348 1320.85 541.82C1313.62 548.469 1268.25 589.642 1265.45 591.82H1291.63C1299.56 584.27 1382.1 511.522 1390.68 501.642C1401.88 488.832 1428.64 456.506 1428.64 405.698C1428.64 393.771 1428.83 148.913 1428.83 138.131C1428.83 97.9918 1447.4 75.7337 1457.13 64.9709C1467.01 53.964 1498.32 26.8974 1506.34 19.741L1480.48 19.478C1473.02 26.3902 1383.02 107.646 1374.06 116.118Z" fill="#D2A73A"/>
<path d="M1169.72 1129.79L1270.76 1218.09H1338.51C1407.29 1218.09 1470.11 1188.6 1511.68 1147.07C1553.2 1105.54 1568.53 1049.81 1568.53 997.613C1568.53 959.652 1568.53 859.782 1568.53 852.851C1568.53 804.202 1538.03 775.877 1529.48 767.406C1524.86 762.823 1495.39 735.024 1495.39 735.024V846.145C1495.39 846.145 1527.83 879.579 1534.19 886.341C1564.26 918.254 1563.93 976.256 1469 1068.78C1452.33 1084.99 1404.9 1129.79 1339.64 1129.79C1330.34 1129.79 1169.72 1129.79 1169.72 1129.79Z" fill="#D2A73A"/>
<path d="M1580.9 616.671C1580.9 616.671 1609.9 649.973 1621.32 658.895C1659.56 689.005 1676.33 654.594 1651.73 615.262C1645.91 605.833 1622.13 590.036 1580.9 616.671ZM1450.82 535.772C1439.52 547.661 1428.81 576.794 1428.81 602.471C1428.81 616.746 1428.81 657.318 1428.81 657.318C1428.81 657.318 1473.38 657.318 1484.29 657.318C1505.95 657.318 1525.5 641.239 1540.67 627.208C1541.07 626.494 1540.67 572.793 1540.67 572.793C1540.67 572.793 1554.91 589.154 1567.57 602.321C1586.2 585.303 1634.23 535.077 1669.14 535.077C1739.91 535.077 1723.87 623.752 1694.91 652.265C1685.57 661.488 1643.82 699.768 1630.9 712.052C1597.54 743.889 1540.32 728.675 1540.32 646.517C1540.32 646.517 1479 704.764 1469.7 712.446C1460.35 720.204 1428.81 753.694 1428.81 753.694C1428.81 753.694 1428.81 884.219 1428.81 898.118C1428.81 967.409 1407.79 992.372 1387.08 1011.51C1377.89 1019.98 1303.42 1087.57 1290 1099.38H1263.59C1263.59 1099.38 1311.56 1057.51 1320.63 1048.03C1331.05 1037.32 1343.13 1015.31 1343.13 978.736C1343.13 969.494 1342 751.797 1342 751.797C1342 751.797 1002.73 751.797 987.274 751.797C863.879 751.797 837.528 614.886 836.758 578.278C836.552 567.459 836.758 458.122 836.758 441.104C836.758 418.546 822.371 380.641 799.345 368.902H834.11C838.148 370.63 860.01 379.477 860.01 463.4C860.01 463.4 858.545 561.091 858.545 566.313C858.545 608.876 892.371 657.712 941.297 657.712C951.288 657.712 1342.75 657.318 1342.75 657.318C1343.13 646.517 1354 605.514 1373.29 583.932C1384.15 571.685 1470.32 492.89 1480.12 485.301L1505.61 485.038C1501.91 488.551 1460.08 525.911 1450.82 535.772Z" fill="#D2A73A"/>
<path d="M1152.14 876.668C1152.14 895.996 1090.27 947.537 1086.65 951.143C1082.18 930.275 1066.55 907.228 1020.4 861.04L1088.15 793.251C1133.55 838.65 1152.14 848.343 1152.14 876.668Z" fill="#D2A73A"/>
<path d="M1033.55 477.957C1015.03 497.398 1011.77 502.281 994.392 512.687C995.989 512.687 1199.77 512.687 1206.42 512.687C1263.93 512.687 1252.43 477.055 1242.07 459.042C1221.05 422.133 1154.32 353.612 1154.32 353.612C1154.32 353.612 1037.46 473.881 1033.55 477.957ZM1269.64 99.7764C1283.27 113.432 1312.53 150.228 1294.97 167.809C1279.44 183.324 1255.44 208.005 1255.44 208.005C1254.29 199.083 1231.74 177.727 1231.74 177.727C1231.74 177.727 1231.94 243.186 1231.74 251.3C1231.02 280.828 1219.81 289.261 1219.81 289.261C1219.81 289.261 1274.43 343.413 1274.43 413.042C1274.43 446.833 1274.52 477.826 1274.52 484.512C1274.52 498.825 1270.93 509.832 1260.98 520.783C1256.06 526.23 1205.5 577.132 1197.78 584.082C1183.15 597.268 1167.77 599.484 1156.18 599.484C1148.04 599.484 973.338 599.484 967.966 599.484C938.329 599.484 907.753 576.362 907.753 553.146C907.753 547.398 908.166 483.404 908.166 483.404C917.782 494.524 927.624 507.616 951.326 507.296C969.863 506.939 989.284 492.439 994.58 487.217C999.895 481.826 1136.94 338.605 1136.94 338.605C1136.94 338.605 1072.81 279.137 1030.47 250.812C1009.81 237.063 982.504 254.475 978.409 272.694C965.375 329.589 978.409 415.127 978.409 415.127C978.409 415.127 936.526 373.26 926.44 363.248C905.443 342.249 906.269 294.783 931.192 269.877C935.08 265.876 973.075 223.032 1021.36 223.032C1029.04 223.032 1088 223.032 1096.51 223.032C1146.88 223.032 1201.25 272.413 1201.25 272.413C1201.25 272.413 1209.31 263.491 1209.31 254.982C1209.31 229.155 1209.12 160.258 1209.12 160.258C1171.22 122.297 1166.11 83.2096 1184.29 64.9899C1218.14 31.0487 1230.59 19.1777 1230.59 19.1777C1230.59 19.1777 1230.18 60.2566 1269.64 99.7764Z" fill="#D2A73A"/>
<path d="M791.833 670.898H757.03C757.03 670.898 794.481 691.484 794.481 744.453C794.481 758.427 794.481 902.1 794.481 913.652C794.481 1023.7 885.29 1125.54 995.632 1125.54C1014.19 1125.54 1075.42 1125.54 1087.76 1125.54C1143.07 1125.54 1162.49 1112.15 1195.98 1082.44C1208.18 1071.54 1224.11 1053.68 1230.03 1047.14C1249.26 1025.58 1269.75 1008.19 1269.75 951.425C1269.75 937.563 1269.75 903.734 1269.75 895.995C1269.75 848.155 1241.99 828.244 1228.71 814.89C1220.13 806.268 1196.5 783.766 1196.5 783.766V897.179C1196.5 897.179 1219.7 921.897 1230.01 930.012C1277.81 967.766 1239.85 1033.66 1195.28 1033.66C1186.43 1033.66 1005.3 1033.73 992.946 1033.73C915.078 1033.73 817.714 969.137 817.714 857.321C817.714 842.313 817.714 775.163 817.714 765.358C817.751 670.898 791.833 670.898 791.833 670.898Z" fill="#D2A73A"/>
<path d="M1013.66 876.987C1013.66 896.315 951.739 947.818 948.115 951.425C943.682 930.557 928.018 907.472 881.834 861.284L949.636 793.496C995.031 838.951 1013.66 848.662 1013.66 876.987Z" fill="#D2A73A"/>
<path d="M304.806 1629.93C293.707 1629.93 208.194 1629.82 196.399 1629.82C162.479 1629.82 165.128 1601.3 162.16 1577.51V1421.59C162.16 1421.59 185.938 1421 212.044 1421C242.17 1421 279.789 1416.57 316.282 1437.25C316.282 1437.25 289.988 1374.29 211.838 1374.29H162.16C162.16 1374.29 162.16 1365.33 162.16 1343.62V1324.29C162.16 1324.29 162.16 1280.64 151.436 1268.2C151.436 1268.2 217.866 1268.43 222.562 1268.47C284.71 1268.54 332.866 1267.55 382.938 1300.38C382.938 1300.38 373.341 1218.47 252.95 1218.47C184.623 1218.47 28.7169 1218.47 18.9316 1218.47C18.9316 1218.47 60.7207 1253.35 58.2415 1324.08L60.7207 1607.37C60.7207 1679.05 88.5926 1680.23 88.5926 1680.23C91.4099 1680.23 105.646 1680.23 168.734 1680.23C179.251 1680.23 191.798 1680.23 205.132 1680.23C238.845 1680.23 283.151 1680.23 319.099 1680.23C371.538 1680.23 389.756 1643.47 389.756 1622.89L390.526 1595.56C390.526 1595.56 373.885 1629.93 304.806 1629.93Z" fill="#D2A73A"/>
<path d="M918.289 1605.79V1407.65C918.289 1330.83 855.089 1310.31 808.454 1310.31C746.794 1310.31 728.088 1362.27 720.256 1379.72C706.282 1331.65 657.807 1309.68 618.047 1309.68C543.746 1309.68 524.683 1380.88 524.683 1380.88C524.683 1380.88 522.88 1312.25 462.572 1312.25L403.767 1312.36C403.767 1312.36 437.574 1326.41 437.574 1385.77L437.518 1605.77C437.518 1679.1 466.986 1679.8 466.986 1679.8H564.575C562.002 1679.1 527.05 1652.62 527.05 1605.21V1410.11C528.27 1401.34 542.995 1372.24 585.085 1372.24C608.167 1372.24 634.048 1396.6 633.635 1424.48L633.485 1605.7C633.485 1679.59 662.559 1679.76 662.559 1679.76H760.486C760.486 1679.76 722.998 1653.56 722.998 1605.02L722.698 1409.88C726.322 1398.95 739.282 1372.75 776.3 1372.75C805.186 1372.75 829.415 1397.15 828.72 1425.06C828.72 1425.06 828.513 1590.56 828.588 1605.92C829.077 1680.14 857.7 1679.55 857.7 1679.55C908.729 1679.55 955.665 1679.74 955.665 1679.74C955.665 1679.74 918.289 1654.05 918.289 1605.79Z" fill="#D2A73A"/>
<path d="M1088.43 1605.68C1088.43 1654.52 1125.99 1679.78 1125.99 1679.78C1125.99 1679.78 1079.49 1679.59 1028.42 1679.59C1028.42 1679.59 999.369 1679.93 999.369 1606.3V1605.96L999.501 1385.18C999.501 1327.11 965.731 1312.17 965.731 1312.17H1023.94C1044.71 1312.17 1088.15 1312.17 1088.15 1394.35L1088 1605.32L1088.43 1605.68Z" fill="#D2A73A"/>
<path d="M1387.81 1340.05C1387.81 1340.05 1378.4 1313.53 1337.96 1313.53C1276.75 1313.53 1261.84 1385.88 1261.84 1385.88C1256.75 1328.8 1241.45 1311.78 1199.07 1311.78L1139.99 1311.86C1139.99 1311.86 1174.32 1326.02 1174.32 1385.22L1174.15 1605.62C1174.15 1678.99 1203.51 1679.69 1203.51 1679.69H1300.16C1297.68 1678.99 1262.84 1652.47 1262.84 1604.95L1262.99 1424.78C1265.34 1408.27 1273.83 1395.76 1286.88 1387.29C1318.86 1366.97 1362.77 1371.96 1387.83 1402.07C1387.83 1402.07 1387.81 1363.49 1387.81 1340.05Z" fill="#D2A73A"/>
<path d="M1840.09 1353.44C1873.17 1353.44 1897.84 1367.83 1897.84 1367.83L1898.07 1312.17H1816.56V1228.04C1816.56 1228.04 1795.45 1265.42 1751.31 1301.13C1723.68 1323.95 1665.59 1351.98 1665.59 1351.98L1727.49 1353.12L1727.36 1608.74C1727.36 1679.61 1757.09 1679.61 1757.09 1679.61C1810.47 1679.61 1853.59 1679.8 1853.59 1679.8C1853.59 1679.8 1816.43 1654.52 1816.43 1608.08L1816.56 1353.33C1841.72 1353.4 1824.13 1353.44 1840.09 1353.44Z" fill="#D2A73A"/>
<path d="M2075.8 1441.01C2091.97 1411.14 2104.67 1335.69 2049.45 1339.82C1986.17 1344.56 1998.33 1514.07 1998.33 1514.07C2019.3 1490.86 2051.12 1486.16 2075.8 1441.01ZM2135.69 1464.56C2080.96 1521.25 2038.01 1512.37 2004.66 1554.21C2004.66 1554.21 2010.03 1610.75 2052.62 1630.74C2067.44 1637.56 2127.62 1656.83 2166.5 1588.85L2166.4 1653.43C2166.4 1653.43 2141.35 1680.21 2061.83 1680.21C1966.98 1680.21 1901.34 1605.27 1901.34 1503.65C1901.34 1403.69 1954.88 1310.78 2054.93 1310.35C2153.91 1309.71 2207.55 1389.28 2135.69 1464.56Z" fill="#D2A73A"/>
<path d="M1043.06 1282.35C1068.22 1282.35 1088.68 1262.87 1088.68 1238.24C1088.68 1213.62 1068.22 1193.63 1043.06 1193.63C1017.89 1193.63 998.487 1213.62 998.487 1238.24C998.487 1262.87 1017.89 1282.35 1043.06 1282.35Z" fill="#D2A73A"/>
<path d="M2349.79 1579.82C2350.52 1605.87 2327.38 1640.24 2277.91 1640.24C2229.38 1640.24 2208.04 1588.12 2208.04 1588.12L2207.65 1653.9C2207.65 1653.9 2243.59 1679.91 2299.79 1679.91H2299.73C2366.65 1679.91 2432.63 1629.69 2430.62 1559.47C2429.93 1534.57 2421.42 1513.4 2408.18 1495.16C2385.49 1465.41 2344.58 1443.39 2312.15 1424.65C2268.12 1399.16 2274.06 1344.39 2338.65 1349.59C2387.03 1353.48 2407.52 1400.1 2407.52 1400.1V1338.83C2407.52 1338.83 2370.24 1309.41 2313.99 1309.41C2255.56 1309.41 2203.59 1348.09 2205.04 1397.24C2206.31 1440.75 2224.04 1469.11 2259.73 1495.05C2273.89 1505.64 2290.76 1515.8 2310.25 1526.72C2338.82 1542.4 2349.3 1561.75 2349.79 1579.82Z" fill="#D2A73A"/>
<path d="M1554.29 1393.09C1554.29 1429.08 1523.77 1445.18 1503.84 1453.91C1445.83 1479.27 1371.6 1507.22 1371.6 1591.52C1371.6 1647.94 1412.49 1680.31 1469.92 1680.31C1513.95 1680.31 1536.05 1657.56 1547 1636.13C1553.65 1677.7 1574.37 1679.59 1574.37 1679.59C1625.1 1679.59 1671.58 1679.89 1671.58 1679.89C1671.58 1679.89 1633.66 1654.14 1633.66 1605.92V1399.48C1633.66 1349.91 1578.84 1311.54 1520.67 1311.54C1464.72 1311.54 1429.41 1338.55 1429.41 1338.55C1429.41 1355.09 1429.41 1402.52 1429.41 1402.52C1429.41 1402.52 1449.38 1351.75 1499.96 1351.75C1541.93 1351.75 1554.29 1372.34 1554.29 1393.09ZM1501.63 1637.93C1554.29 1637.93 1450.11 1621.5 1450.11 1586.67C1450.11 1503.84 1525.33 1486.78 1545.5 1462.27L1545.37 1616.86C1544.71 1617.46 1531.83 1637.93 1501.63 1637.93Z" fill="#D2A73A"/>
</g>
<defs>
<clipPath id="clip0_464_2297">
<rect width="2451" height="1698" fill="white"/>
</clipPath>
</defs>
</svg>
